<?xml version="1.0" standalone="no"?>
<!DOCTYPE svg PUBLIC "-//W3C//DTD SVG 1.0//EN" "http://www.w3.org/TR/2001/REC-SVG-20010904/DTD/svg10.dtd">
<svg xmlns="http://www.w3.org/2000/svg" xmlns:xlink="http://www.w3.org/1999/xlink" id="body_1" width="102" height="77">

<g transform="matrix(0.09960938 0 0 0.1002604 0 0)">
	<g transform="matrix(1.5 0 0 1.5 128 0)">
	</g>
    <path transform="matrix(1.5 0 0 1.5 128 0)"  d="M373.333 0L138.667 0C 120.994 0 106.667 14.327 106.667 32C 106.667 49.673 120.994 64 138.667 64L138.667 64L373.334 64C 391.007 64 405.334 49.673 405.334 32C 405.334 14.327 391.006 0 373.333 0z" stroke="none" fill="#455A64" fill-rule="nonzero" />
	<g transform="matrix(1.5 0 0 1.5 128 0)">
	</g>
    <path transform="matrix(1.5 0 0 1.5 128 0)"  d="M373.333 469.333L138.667 469.333C 132.776 469.333 128 464.557 128 458.666L128 458.666L128 369.386C 127.999 341.699 139.951 315.36 160.789 297.13L160.789 297.13L198.613 264.021C 203.043 260.138 203.486 253.399 199.603 248.969C 199.295 248.618 198.964 248.287 198.613 247.979L198.613 247.979L160.789 214.87C 139.951 196.64 127.999 170.301 128 142.614L128 142.614L128 53.334C 128 47.443 132.776 42.667 138.667 42.667L138.667 42.667L373.334 42.667C 379.225 42.667 384.001 47.443 384.001 53.334L384.001 53.334L384.001 142.614C 384.002 170.301 372.05 196.64 351.212 214.87L351.212 214.87L313.388 247.979C 308.958 251.862 308.515 258.601 312.398 263.031C 312.706 263.382 313.037 263.713 313.388 264.021L313.388 264.021L351.212 297.13C 372.05 315.36 384.002 341.699 384.001 369.386L384.001 369.386L384.001 458.666C 384 464.558 379.224 469.333 373.333 469.333z" stroke="none" fill="#455A64" fill-rule="nonzero" />
	<g transform="matrix(1.5 0 0 1.5 128 0)">
	</g>
    <path transform="matrix(1.5 0 0 1.5 128 0)"  d="M149.333 448L362.666 448L362.666 369.387C 362.64 347.84 353.307 327.354 337.066 313.195L337.066 313.195L299.242 280.086C 285.94 268.45 284.59 248.234 296.226 234.932C 297.163 233.861 298.171 232.853 299.242 231.916L299.242 231.916L337.066 198.807C 353.307 184.648 362.64 164.162 362.666 142.615L362.666 142.615L362.666 64L149.333 64L149.333 142.613C 149.359 164.16 158.692 184.646 174.933 198.805L174.933 198.805L212.757 231.914C 226.053 243.557 227.393 263.774 215.751 277.07C 214.82 278.133 213.82 279.133 212.757 280.064L212.757 280.064L174.933 313.195C 158.692 327.354 149.359 347.84 149.333 369.387L149.333 369.387L149.333 448z" stroke="none" fill="#ECEFF1" fill-rule="nonzero" />
	<g transform="matrix(1.5 0 0 1.5 128 0)">
	</g>
    <path transform="matrix(1.5 0 0 1.5 128 0)"  d="M319.189 177.259C 317.54 173.27 313.65 170.668 309.333 170.667L309.333 170.667L202.667 170.667C 196.776 170.656 191.992 175.424 191.981 181.315C 191.976 184.155 193.104 186.88 195.115 188.886L195.115 188.886L248.448 242.219C 252.613 246.383 259.365 246.383 263.531 242.219L263.531 242.219L316.864 188.886C 319.92 185.837 320.838 181.248 319.189 177.259z" stroke="none" fill="#FFC107" fill-rule="nonzero" />
	<g transform="matrix(1.5 0 0 1.5 128 0)">
	</g>
    <path transform="matrix(1.5 0 0 1.5 128 0)"  d="M373.333 448L138.667 448C 120.994 448 106.667 462.327 106.667 480C 106.667 497.673 120.994 512 138.667 512L138.667 512L373.334 512C 391.007 512 405.334 497.673 405.334 480C 405.334 462.327 391.006 448 373.333 448z" stroke="none" fill="#455A64" fill-rule="nonzero" />
	<g transform="matrix(1.5 0 0 1.5 128 0)">
	</g>
    <path transform="matrix(1.5 0 0 1.5 128 0)"  d="M263.168 333.44C 258.954 329.625 252.49 329.785 248.469 333.803L248.469 333.803L149.333 432.918L149.333 448L362.666 448L362.666 423.893L263.168 333.44z" stroke="none" fill="#FFC107" fill-rule="nonzero" />
</g>
</svg>